<svg width="108" height="108" viewBox="0 0 108 108" fill="none" xmlns="http://www.w3.org/2000/svg">
<path d="M108 54C108 83.8234 83.8234 108 54 108C24.1766 108 0 83.8234 0 54C0 24.1766 24.1766 0 54 0C83.8234 0 108 24.1766 108 54Z" fill="url(#paint0_linear_5_7)"/>
<path d="M24.62 42.76L26.98 46.5L13.6 54.46L26.98 62.36L24.48 66.14L9.04 56.52V52.4L24.62 42.76ZM77.4131 39.06L98.9331 52.38V56.52L83.4931 66.14L80.9931 62.48L94.3931 54.46L75.0131 42.9L77.4131 39.06ZM63.5931 71.36L59.4331 69.46L76.3531 34.42L80.4731 36.36L63.5931 71.36Z" fill="#91B0E3"/>
<path d="M52.1044 47.52C52.1044 48.8533 51.8377 50.02 51.3044 51.02C50.7844 52.02 50.071 52.86 49.1644 53.54C48.271 54.22 47.2644 54.7467 46.1444 55.12L53.7244 67H47.4444L40.9044 55.98H38.3844V67H32.9244V39.34H41.0644C44.7044 39.34 47.451 40.0133 49.3044 41.36C51.171 42.7067 52.1044 44.76 52.1044 47.52ZM46.4244 47.52C46.4244 46.0267 45.991 44.9533 45.1244 44.3C44.2577 43.6333 42.951 43.3 41.2044 43.3H38.3844V52.1H41.3844C42.9977 52.1 44.2377 51.74 45.1044 51.02C45.9844 50.3 46.4244 49.1333 46.4244 47.52Z" fill="white"/>
<defs>
<linearGradient id="paint0_linear_5_7" x1="54" y1="0" x2="36" y2="95" gradientUnits="userSpaceOnUse">
<stop stop-color="#0B0F1E"/>
<stop offset="1" stop-color="#071A40"/>
</linearGradient>
</defs>
</svg>
