<svg width="116" height="30" viewBox="0 0 116 30" fill="none" xmlns="http://www.w3.org/2000/svg">
<path d="M11.172 9.456L12.588 11.7L4.56 16.476L12.588 21.216L11.088 23.484L1.824 17.712V15.24L11.172 9.456ZM100.41 7.236L113.322 15.228V17.712L104.058 23.484L102.558 21.288L110.598 16.476L98.9704 9.54L100.41 7.236ZM92.1184 26.616L89.6224 25.476L99.7744 4.452L102.246 5.616L92.1184 26.616Z" fill="#91B0E3"/>
<path d="M27.6626 12.312C27.6626 13.112 27.5026 13.812 27.1826 14.412C26.8706 15.012 26.4426 15.516 25.8986 15.924C25.3626 16.332 24.7586 16.648 24.0866 16.872L28.6346 24H24.8666L20.9426 17.388H19.4306V24H16.1546V7.404H21.0386C23.2226 7.404 24.8706 7.808 25.9826 8.616C27.1026 9.424 27.6626 10.656 27.6626 12.312ZM24.2546 12.312C24.2546 11.416 23.9946 10.772 23.4746 10.38C22.9546 9.98 22.1706 9.78 21.1226 9.78H19.4306V15.06H21.2306C22.1986 15.06 22.9426 14.844 23.4626 14.412C23.9906 13.98 24.2546 13.28 24.2546 12.312ZM35.9933 10.932C37.2573 10.932 38.3293 11.208 39.2093 11.76C40.0893 12.312 40.7573 13.092 41.2133 14.1C41.6773 15.1 41.9093 16.272 41.9093 17.616C41.9093 18.992 41.6773 20.184 41.2133 21.192C40.7493 22.2 40.0773 22.98 39.1973 23.532C38.3173 24.084 37.2453 24.36 35.9813 24.36C34.7253 24.36 33.6533 24.092 32.7653 23.556C31.8853 23.012 31.2133 22.24 30.7493 21.24C30.2853 20.232 30.0533 19.032 30.0533 17.64C30.0533 16.312 30.2853 15.144 30.7493 14.136C31.2133 13.128 31.8893 12.344 32.7773 11.784C33.6653 11.216 34.7373 10.932 35.9933 10.932ZM35.9933 13.32C35.1053 13.32 34.4413 13.668 34.0013 14.364C33.5693 15.06 33.3533 16.152 33.3533 17.64C33.3533 19.144 33.5693 20.244 34.0013 20.94C34.4333 21.628 35.0933 21.972 35.9813 21.972C36.8693 21.972 37.5293 21.628 37.9613 20.94C38.3933 20.244 38.6093 19.136 38.6093 17.616C38.6093 16.136 38.3933 15.052 37.9613 14.364C37.5293 13.668 36.8733 13.32 35.9933 13.32ZM48.2719 5.916V12.72C48.7999 12.12 49.3919 11.672 50.0479 11.376C50.7119 11.08 51.4039 10.932 52.1239 10.932C53.2919 10.932 54.1679 11.264 54.7519 11.928C55.3439 12.584 55.6399 13.508 55.6399 14.7V24H52.4719V15.408C52.4719 14.64 52.3519 14.096 52.1119 13.776C51.8799 13.456 51.4799 13.296 50.9119 13.296C50.5759 13.296 50.2479 13.376 49.9279 13.536C49.6159 13.688 49.3199 13.896 49.0399 14.16C48.7679 14.424 48.5119 14.72 48.2719 15.048V24H45.1039V6.228L48.2719 5.916ZM66.8025 11.292V21.756H70.1505V24H59.9145V21.756H63.6345V13.536H60.0345V11.292H66.8025ZM64.7505 4.884C65.3345 4.884 65.8065 5.064 66.1665 5.424C66.5345 5.784 66.7185 6.232 66.7185 6.768C66.7185 7.304 66.5345 7.756 66.1665 8.124C65.8065 8.484 65.3345 8.664 64.7505 8.664C64.1665 8.664 63.6905 8.484 63.3225 8.124C62.9545 7.756 62.7705 7.304 62.7705 6.768C62.7705 6.232 62.9545 5.784 63.3225 5.424C63.6905 5.064 64.1665 4.884 64.7505 4.884ZM84.8531 23.292C84.3811 23.604 83.8091 23.86 83.1371 24.06C82.4651 24.26 81.7371 24.36 80.9531 24.36C79.4011 24.36 78.2331 23.96 77.4491 23.16C76.6651 22.352 76.2731 21.28 76.2731 19.944V13.536H73.5131V11.292H76.2731V8.496L79.4411 8.112V11.292H83.6411L83.3171 13.536H79.4411V19.932C79.4411 20.588 79.6011 21.068 79.9211 21.372C80.2411 21.676 80.7571 21.828 81.4691 21.828C81.9251 21.828 82.3411 21.776 82.7171 21.672C83.1011 21.56 83.4491 21.42 83.7611 21.252L84.8531 23.292Z" fill="white"/>
</svg>
